<svg width="416mm" height="343mm" viewBox="0 0 416 343" xmlns="http://www.w3.org/2000/svg" version="1.1" preserveAspectRatio="xMidYMid meet"><g id="svgGroup" stroke-linecap="round" fill-rule="evenodd" font-size="9pt" stroke="#000" stroke-width="0.25mm" fill="none" style="stroke:#000;stroke-width:0.25mm;fill:none"><path d="M 0 283 L 0 305.5 L 3 305.5 L 3 320.5 L 0 320.5 L 0 335.5 L 0 343 L 22.5 343 L 22.5 340 L 37.5 340 L 37.5 343 L 52.5 343 L 52.5 340 L 67.5 340 L 67.5 343 L 82.5 343 L 82.5 340 L 97.5 340 L 97.5 343 L 112.5 343 L 120 343 L 120 320.5 L 117 320.5 L 117 305.5 L 120 305.5 L 120 290.5 L 120 283 L 97.5 283 L 97.5 286 L 82.5 286 L 82.5 283 L 67.5 283 L 67.5 286 L 52.5 286 L 52.5 283 L 37.5 283 L 37.5 286 L 22.5 286 L 22.5 283 L 7.5 283 L 0 283 Z" id="front_outsideCutPath" stroke="#FF0000" stroke-width="0.1" style="stroke:#FF0000;stroke-width:0.1" vector-effect="non-scaling-stroke"/><path d="M 68.745 317.532 L 67.772 317.532 L 67.772 313.378 A 2.749 2.749 0 0 0 67.741 312.947 Q 67.705 312.72 67.627 312.539 A 1.157 1.157 0 0 0 67.415 312.206 Q 67.126 311.893 66.571 311.833 A 2.579 2.579 0 0 0 66.296 311.819 A 2.944 2.944 0 0 0 65.745 311.867 Q 65.149 311.981 64.819 312.364 A 1.59 1.59 0 0 0 64.543 312.847 Q 64.377 313.291 64.354 313.952 A 6.231 6.231 0 0 0 64.351 314.163 L 64.351 317.532 L 63.378 317.532 L 63.378 311.11 L 64.169 311.11 L 64.327 311.989 L 64.374 311.989 A 1.97 1.97 0 0 1 65.145 311.287 A 2.368 2.368 0 0 1 65.212 311.254 Q 65.751 310.993 66.413 310.993 Q 67.183 310.993 67.699 311.239 A 1.748 1.748 0 0 1 68.159 311.553 A 1.686 1.686 0 0 1 68.57 312.197 Q 68.745 312.67 68.745 313.343 L 68.745 317.532 Z M 50.06 311.11 L 50.06 311.866 L 48.425 311.866 L 48.425 317.532 L 47.452 317.532 L 47.452 311.866 L 46.304 311.866 L 46.304 311.427 L 47.452 311.075 L 47.452 310.718 A 3.942 3.942 0 0 1 47.544 309.824 Q 47.888 308.35 49.521 308.35 A 3.132 3.132 0 0 1 49.964 308.384 Q 50.179 308.415 50.419 308.474 A 6.296 6.296 0 0 1 50.716 308.556 L 50.464 309.335 A 4.723 4.723 0 0 0 50.097 309.231 Q 49.764 309.153 49.503 309.153 A 1.312 1.312 0 0 0 49.187 309.189 A 0.842 0.842 0 0 0 48.688 309.519 A 1.125 1.125 0 0 0 48.54 309.819 Q 48.441 310.112 48.427 310.548 A 4.592 4.592 0 0 0 48.425 310.694 L 48.425 311.11 L 50.06 311.11 Z M 73.696 316.729 L 73.696 317.474 A 0.957 0.957 0 0 1 73.583 317.519 Q 73.462 317.559 73.289 317.59 A 3.638 3.638 0 0 1 73.23 317.599 A 4.216 4.216 0 0 1 72.956 317.635 Q 72.826 317.648 72.71 317.649 A 2.494 2.494 0 0 1 72.677 317.649 A 2.54 2.54 0 0 1 71.928 317.549 Q 71.105 317.295 70.89 316.401 A 3.057 3.057 0 0 1 70.813 315.686 L 70.813 311.866 L 69.894 311.866 L 69.894 311.397 L 70.813 310.993 L 71.224 309.622 L 71.786 309.622 L 71.786 311.11 L 73.649 311.11 L 73.649 311.866 L 71.786 311.866 L 71.786 315.645 A 1.959 1.959 0 0 0 71.814 315.989 Q 71.848 316.178 71.922 316.327 A 0.943 0.943 0 0 0 72.062 316.536 A 0.904 0.904 0 0 0 72.617 316.832 A 1.3 1.3 0 0 0 72.817 316.847 A 3.194 3.194 0 0 0 73.285 316.813 A 2.943 2.943 0 0 0 73.315 316.808 Q 73.556 316.77 73.696 316.729 Z M 54.929 311.063 L 54.794 311.966 A 4.287 4.287 0 0 0 54.486 311.909 Q 54.272 311.878 54.091 311.878 A 1.685 1.685 0 0 0 52.846 312.416 A 2.306 2.306 0 0 0 52.758 312.511 A 2.221 2.221 0 0 0 52.222 313.758 A 2.952 2.952 0 0 0 52.204 314.087 L 52.204 317.532 L 51.231 317.532 L 51.231 311.11 L 52.034 311.11 L 52.146 312.3 L 52.192 312.3 A 3.285 3.285 0 0 1 52.56 311.775 A 2.509 2.509 0 0 1 53.054 311.333 A 1.939 1.939 0 0 1 54.161 310.993 A 4.465 4.465 0 0 1 54.561 311.01 A 3.259 3.259 0 0 1 54.929 311.063 Z M 61.584 315.293 A 5.024 5.024 0 0 0 61.673 314.315 A 5.708 5.708 0 0 0 61.671 314.161 Q 61.632 312.74 60.879 311.89 A 2.546 2.546 0 0 0 59.697 311.127 A 3.268 3.268 0 0 0 58.737 310.993 Q 57.343 310.993 56.558 311.869 Q 55.772 312.745 55.772 314.315 A 4.866 4.866 0 0 0 55.834 315.103 A 3.598 3.598 0 0 0 56.136 316.085 A 3.197 3.197 0 0 0 56.207 316.223 A 2.633 2.633 0 0 0 57.167 317.245 A 2.708 2.708 0 0 0 57.789 317.521 A 3.123 3.123 0 0 0 58.696 317.649 A 3.777 3.777 0 0 0 59.356 317.594 A 2.593 2.593 0 0 0 60.882 316.767 Q 61.407 316.182 61.584 315.293 Z M 56.78 314.315 A 4.926 4.926 0 0 0 56.827 315.019 Q 56.932 315.745 57.272 316.19 A 1.594 1.594 0 0 0 58.311 316.802 A 2.416 2.416 0 0 0 58.72 316.835 Q 59.675 316.835 60.17 316.193 Q 60.665 315.552 60.665 314.315 Q 60.665 313.53 60.461 312.986 A 2.003 2.003 0 0 0 60.17 312.455 A 1.6 1.6 0 0 0 59.175 311.861 A 2.453 2.453 0 0 0 58.708 311.819 A 2.315 2.315 0 0 0 58.132 311.887 A 1.549 1.549 0 0 0 57.267 312.446 A 2.011 2.011 0 0 0 56.954 313.05 Q 56.862 313.328 56.818 313.668 A 5.14 5.14 0 0 0 56.78 314.315 Z" id="front_labelLayer" stroke="#777777" fill="#777777" style="stroke:#777777;fill:#777777" vector-effect="non-scaling-stroke"/><path d="M 126 283 L 126 305.5 L 123 305.5 L 123 320.5 L 126 320.5 L 126 335.5 L 126 343 L 140.5 343 L 140.5 340 L 155.5 340 L 155.5 343 L 170.5 343 L 170.5 340 L 185.5 340 L 185.5 343 L 200.5 343 L 200.5 340 L 215.5 340 L 215.5 343 L 230.5 343 L 230.5 340 L 245.5 340 L 245.5 343 L 260.5 343 L 260.5 340 L 275.5 340 L 275.5 343 L 290 343 L 290 320.5 L 293 320.5 L 293 305.5 L 290 305.5 L 290 290.5 L 290 283 L 275.5 283 L 275.5 286 L 260.5 286 L 260.5 283 L 245.5 283 L 245.5 286 L 230.5 286 L 230.5 283 L 215.5 283 L 215.5 286 L 200.5 286 L 200.5 283 L 185.5 283 L 185.5 286 L 170.5 286 L 170.5 283 L 155.5 283 L 155.5 286 L 140.5 286 L 140.5 283 L 126 283 Z" id="left_outsideCutPath" stroke="#FF0000" stroke-width="0.1" style="stroke:#FF0000;stroke-width:0.1" vector-effect="non-scaling-stroke"/><path d="M 212.269 311.11 L 212.269 311.866 L 210.634 311.866 L 210.634 317.532 L 209.661 317.532 L 209.661 311.866 L 208.513 311.866 L 208.513 311.427 L 209.661 311.075 L 209.661 310.718 A 3.942 3.942 0 0 1 209.753 309.824 Q 210.097 308.35 211.729 308.35 A 3.132 3.132 0 0 1 212.173 308.384 Q 212.388 308.415 212.628 308.474 A 6.296 6.296 0 0 1 212.925 308.556 L 212.673 309.335 A 4.723 4.723 0 0 0 212.306 309.231 Q 211.973 309.153 211.712 309.153 A 1.312 1.312 0 0 0 211.396 309.189 A 0.842 0.842 0 0 0 210.897 309.519 A 1.125 1.125 0 0 0 210.749 309.819 Q 210.65 310.112 210.636 310.548 A 4.592 4.592 0 0 0 210.634 310.694 L 210.634 311.11 L 212.269 311.11 Z M 207.716 313.882 L 207.716 314.497 L 203.292 314.497 Q 203.312 315.269 203.571 315.788 A 1.826 1.826 0 0 0 203.863 316.214 A 1.767 1.767 0 0 0 204.791 316.737 A 2.678 2.678 0 0 0 205.39 316.8 A 5.137 5.137 0 0 0 207.314 316.419 A 5.887 5.887 0 0 0 207.44 316.366 L 207.44 317.233 A 5.839 5.839 0 0 1 206.908 317.434 A 4.465 4.465 0 0 1 206.465 317.553 A 4.083 4.083 0 0 1 206.06 317.615 Q 205.741 317.649 205.354 317.649 A 3.78 3.78 0 0 1 204.409 317.537 A 2.676 2.676 0 0 1 203.107 316.782 A 2.863 2.863 0 0 1 202.423 315.525 Q 202.304 315.079 202.287 314.549 A 5.556 5.556 0 0 1 202.284 314.374 A 5.107 5.107 0 0 1 202.379 313.361 Q 202.503 312.745 202.792 312.267 A 2.88 2.88 0 0 1 203.049 311.907 A 2.492 2.492 0 0 1 204.865 311.001 A 3.438 3.438 0 0 1 205.103 310.993 A 2.963 2.963 0 0 1 205.937 311.105 A 2.255 2.255 0 0 1 207.013 311.787 A 2.72 2.72 0 0 1 207.629 313.03 A 3.959 3.959 0 0 1 207.716 313.882 Z M 216.394 316.729 L 216.394 317.474 A 0.957 0.957 0 0 1 216.28 317.519 Q 216.159 317.559 215.986 317.59 A 3.638 3.638 0 0 1 215.928 317.599 A 4.216 4.216 0 0 1 215.653 317.635 Q 215.523 317.648 215.407 317.649 A 2.494 2.494 0 0 1 215.374 317.649 A 2.54 2.54 0 0 1 214.625 317.549 Q 213.802 317.295 213.587 316.401 A 3.057 3.057 0 0 1 213.511 315.686 L 213.511 311.866 L 212.591 311.866 L 212.591 311.397 L 213.511 310.993 L 213.921 309.622 L 214.483 309.622 L 214.483 311.11 L 216.347 311.11 L 216.347 311.866 L 214.483 311.866 L 214.483 315.645 A 1.959 1.959 0 0 0 214.512 315.989 Q 214.545 316.178 214.619 316.327 A 0.943 0.943 0 0 0 214.759 316.536 A 0.904 0.904 0 0 0 215.314 316.832 A 1.3 1.3 0 0 0 215.515 316.847 A 3.194 3.194 0 0 0 215.983 316.813 A 2.943 2.943 0 0 0 216.013 316.808 Q 216.253 316.77 216.394 316.729 Z M 200.579 308.415 L 200.579 317.532 L 199.606 317.532 L 199.606 308.415 L 200.579 308.415 Z M 203.315 313.706 L 206.673 313.706 A 3.314 3.314 0 0 0 206.633 313.173 Q 206.545 312.633 206.263 312.297 A 1.333 1.333 0 0 0 205.46 311.84 A 1.999 1.999 0 0 0 205.091 311.807 A 1.917 1.917 0 0 0 204.537 311.884 A 1.481 1.481 0 0 0 203.857 312.311 A 1.921 1.921 0 0 0 203.475 312.956 Q 203.354 313.288 203.315 313.706 Z" id="left_labelLayer" stroke="#777777" fill="#777777" style="stroke:#777777;fill:#777777" vector-effect="non-scaling-stroke"/><path d="M 299 176 L 299 190.5 L 296 190.5 L 296 205.5 L 299 205.5 L 299 220.5 L 296 220.5 L 296 235.5 L 299 235.5 L 299 250.5 L 296 250.5 L 296 265.5 L 299 265.5 L 299 280.5 L 296 280.5 L 296 295.5 L 299 295.5 L 299 310.5 L 296 310.5 L 296 325.5 L 299 325.5 L 299 340 L 318.5 340 L 318.5 343 L 333.5 343 L 333.5 340 L 348.5 340 L 348.5 343 L 363.5 343 L 363.5 340 L 378.5 340 L 378.5 343 L 393.5 343 L 393.5 340 L 408.5 340 L 413 340 L 413 325.5 L 416 325.5 L 416 310.5 L 413 310.5 L 413 295.5 L 416 295.5 L 416 280.5 L 413 280.5 L 413 265.5 L 416 265.5 L 416 250.5 L 413 250.5 L 413 235.5 L 416 235.5 L 416 220.5 L 413 220.5 L 413 205.5 L 416 205.5 L 416 190.5 L 413 190.5 L 413 176 L 393.5 176 L 393.5 173 L 378.5 173 L 378.5 176 L 363.5 176 L 363.5 173 L 348.5 173 L 348.5 176 L 333.5 176 L 333.5 173 L 318.5 173 L 318.5 176 L 303.5 176 L 299 176 Z" id="top_outsideCutPath" stroke="#FF0000" stroke-width="0.1" style="stroke:#FF0000;stroke-width:0.1" vector-effect="non-scaling-stroke"/><path d="M 364.625 261.375 L 364.484 261.375 Q 364.625 262.5 364.625 263.508 L 364.625 268.793 L 362.68 268.793 L 362.68 250.184 L 364.262 250.184 L 364.531 251.941 L 364.625 251.941 A 5.236 5.236 0 0 1 365.382 251.081 A 4.049 4.049 0 0 1 366.371 250.418 A 4.872 4.872 0 0 1 367.767 250.01 A 6.305 6.305 0 0 1 368.656 249.949 A 5.963 5.963 0 0 1 370.341 250.174 A 4.407 4.407 0 0 1 372.6 251.695 Q 373.735 253.123 373.942 255.489 A 12.667 12.667 0 0 1 373.988 256.594 A 11.406 11.406 0 0 1 373.837 258.513 Q 373.526 260.331 372.576 261.51 A 4.605 4.605 0 0 1 369.303 263.231 A 6.598 6.598 0 0 1 368.656 263.262 A 5.901 5.901 0 0 1 367.173 263.081 A 5.134 5.134 0 0 1 366.365 262.799 A 4.309 4.309 0 0 1 364.625 261.375 Z M 345.617 261.422 L 345.617 262.91 Q 345.331 263.048 344.802 263.142 A 7.276 7.276 0 0 1 344.685 263.162 Q 344.111 263.255 343.644 263.261 A 4.987 4.987 0 0 1 343.578 263.262 A 5.081 5.081 0 0 1 342.081 263.06 Q 340.435 262.552 340.004 260.764 A 6.115 6.115 0 0 1 339.851 259.336 L 339.851 251.695 L 338.012 251.695 L 338.012 250.758 L 339.851 249.949 L 340.672 247.207 L 341.797 247.207 L 341.797 250.184 L 345.523 250.184 L 345.523 251.695 L 341.797 251.695 L 341.797 259.254 Q 341.797 260.069 342.069 260.618 A 1.887 1.887 0 0 0 342.348 261.035 A 1.807 1.807 0 0 0 343.458 261.627 A 2.6 2.6 0 0 0 343.859 261.656 A 6.389 6.389 0 0 0 344.795 261.589 A 5.888 5.888 0 0 0 344.855 261.58 Q 345.314 261.507 345.591 261.429 A 2.926 2.926 0 0 0 345.617 261.422 Z M 357.687 261.498 A 5.427 5.427 0 0 0 358.334 260.61 Q 359.269 259.009 359.269 256.594 Q 359.269 253.535 357.682 251.742 Q 356.094 249.949 353.398 249.949 A 7.555 7.555 0 0 0 352.041 250.066 A 5.145 5.145 0 0 0 349.039 251.701 Q 347.996 252.865 347.646 254.64 A 10.101 10.101 0 0 0 347.469 256.594 A 9.732 9.732 0 0 0 347.591 258.17 A 7.196 7.196 0 0 0 348.195 260.133 A 6.394 6.394 0 0 0 348.337 260.41 A 5.266 5.266 0 0 0 350.258 262.453 A 5.417 5.417 0 0 0 351.501 263.006 A 6.247 6.247 0 0 0 353.316 263.262 A 7.554 7.554 0 0 0 354.635 263.151 A 5.186 5.186 0 0 0 357.687 261.498 Z M 349.484 256.594 A 9.851 9.851 0 0 0 349.578 258.001 Q 349.681 258.715 349.899 259.294 A 4.081 4.081 0 0 0 350.469 260.344 A 3.188 3.188 0 0 0 352.545 261.567 A 4.831 4.831 0 0 0 353.363 261.633 A 4.518 4.518 0 0 0 354.555 261.485 A 3.145 3.145 0 0 0 356.264 260.35 Q 357 259.395 357.189 257.783 A 10.247 10.247 0 0 0 357.254 256.594 A 9.706 9.706 0 0 0 357.162 255.211 Q 357.06 254.507 356.846 253.936 A 4.005 4.005 0 0 0 356.264 252.873 A 3.2 3.2 0 0 0 354.274 251.686 A 4.906 4.906 0 0 0 353.34 251.602 A 4.63 4.63 0 0 0 352.187 251.737 A 3.098 3.098 0 0 0 350.457 252.855 Q 349.757 253.758 349.561 255.298 A 10.28 10.28 0 0 0 349.484 256.594 Z M 364.625 256.16 L 364.625 256.594 A 12.862 12.862 0 0 0 364.689 257.923 Q 364.828 259.264 365.276 260.081 A 2.934 2.934 0 0 0 365.527 260.467 A 2.822 2.822 0 0 0 366.959 261.433 Q 367.597 261.633 368.422 261.633 Q 370.086 261.633 371.029 260.285 Q 371.774 259.222 371.931 257.524 A 10.364 10.364 0 0 0 371.973 256.57 A 9.817 9.817 0 0 0 371.88 255.178 Q 371.678 253.767 371.029 252.885 A 3.026 3.026 0 0 0 368.816 251.624 A 4.185 4.185 0 0 0 368.375 251.602 Q 367.111 251.602 366.297 252.05 A 2.571 2.571 0 0 0 365.527 252.691 Q 364.704 253.712 364.631 255.862 A 12.38 12.38 0 0 0 364.625 256.16 Z" id="top_labelLayer" stroke="#777777" fill="#777777" style="stroke:#777777;fill:#777777" vector-effect="non-scaling-stroke"/><path d="M 0 220 L 0 242.5 L 3 242.5 L 3 257.5 L 0 257.5 L 0 272.5 L 0 280 L 22.5 280 L 22.5 277 L 37.5 277 L 37.5 280 L 52.5 280 L 52.5 277 L 67.5 277 L 67.5 280 L 82.5 280 L 82.5 277 L 97.5 277 L 97.5 280 L 112.5 280 L 120 280 L 120 257.5 L 117 257.5 L 117 242.5 L 120 242.5 L 120 227.5 L 120 220 L 97.5 220 L 97.5 223 L 82.5 223 L 82.5 220 L 67.5 220 L 67.5 223 L 52.5 223 L 52.5 220 L 37.5 220 L 37.5 223 L 22.5 223 L 22.5 220 L 7.5 220 L 0 220 Z" id="back_outsideCutPath" stroke="#FF0000" stroke-width="0.1" style="stroke:#FF0000;stroke-width:0.1" vector-effect="non-scaling-stroke"/><path d="M 68.215 251.213 L 68.262 251.213 A 5.758 5.758 0 0 1 68.404 251.02 Q 68.643 250.71 69.029 250.275 L 71.104 248.078 L 72.258 248.078 L 69.656 250.814 L 72.439 254.5 L 71.262 254.5 L 68.994 251.465 L 68.262 252.098 L 68.262 254.5 L 67.301 254.5 L 67.301 245.383 L 68.262 245.383 L 68.262 250.217 A 6.482 6.482 0 0 1 68.259 250.4 Q 68.25 250.707 68.215 251.213 Z M 48.533 253.674 L 48.463 253.674 L 48.258 254.5 L 47.561 254.5 L 47.561 245.383 L 48.533 245.383 L 48.533 247.598 Q 48.533 248.318 48.489 248.895 A 12.201 12.201 0 0 1 48.486 248.934 L 48.533 248.934 A 2.211 2.211 0 0 1 50.147 247.996 A 3.322 3.322 0 0 1 50.549 247.973 Q 51.814 247.973 52.515 248.837 Q 53.215 249.701 53.215 251.283 A 5.703 5.703 0 0 1 53.139 252.243 Q 53.052 252.754 52.863 253.164 A 2.734 2.734 0 0 1 52.509 253.741 A 2.303 2.303 0 0 1 50.872 254.602 A 3.299 3.299 0 0 1 50.549 254.617 A 2.95 2.95 0 0 1 49.807 254.527 A 2.567 2.567 0 0 1 49.403 254.386 A 2.154 2.154 0 0 1 48.533 253.674 Z M 59.584 254.5 L 58.863 254.5 L 58.67 253.586 L 58.623 253.586 Q 58.284 254.012 57.946 254.244 A 1.792 1.792 0 0 1 57.665 254.403 A 2.243 2.243 0 0 1 57.202 254.549 Q 56.977 254.596 56.717 254.611 A 4.377 4.377 0 0 1 56.473 254.617 A 2.985 2.985 0 0 1 55.865 254.559 Q 55.331 254.448 54.976 254.125 A 1.599 1.599 0 0 1 54.493 253.282 A 2.447 2.447 0 0 1 54.434 252.725 A 1.683 1.683 0 0 1 55.391 251.136 Q 56.104 250.757 57.347 250.693 A 9.501 9.501 0 0 1 57.545 250.685 L 58.635 250.65 L 58.635 250.252 A 2.794 2.794 0 0 0 58.608 249.848 Q 58.577 249.641 58.513 249.476 A 1.085 1.085 0 0 0 58.31 249.136 A 0.987 0.987 0 0 0 57.905 248.872 Q 57.743 248.813 57.543 248.79 A 2.403 2.403 0 0 0 57.27 248.775 A 3.167 3.167 0 0 0 56.541 248.866 Q 56.031 248.987 55.453 249.268 L 55.154 248.523 A 4.485 4.485 0 0 1 56.02 248.168 A 5.105 5.105 0 0 1 56.194 248.119 A 4.504 4.504 0 0 1 57.328 247.973 A 4.108 4.108 0 0 1 57.954 248.017 Q 58.64 248.123 59.03 248.482 Q 59.584 248.992 59.584 250.117 L 59.584 254.5 Z M 65.871 248.295 L 65.572 249.121 Q 65.25 248.992 64.869 248.907 Q 64.543 248.834 64.282 248.824 A 2.156 2.156 0 0 0 64.195 248.822 A 2.157 2.157 0 0 0 63.319 248.987 Q 62.401 249.392 62.263 250.792 A 5.375 5.375 0 0 0 62.238 251.318 A 4.711 4.711 0 0 0 62.285 252.004 Q 62.336 252.352 62.444 252.635 A 2.017 2.017 0 0 0 62.716 253.135 A 1.545 1.545 0 0 0 63.717 253.733 A 2.353 2.353 0 0 0 64.131 253.768 A 4.072 4.072 0 0 0 65.254 253.604 A 5.027 5.027 0 0 0 65.777 253.422 L 65.777 254.283 A 2.767 2.767 0 0 1 65.1 254.523 Q 64.788 254.592 64.424 254.61 A 5.334 5.334 0 0 1 64.154 254.617 A 3.635 3.635 0 0 1 63.27 254.516 A 2.465 2.465 0 0 1 61.995 253.759 A 2.813 2.813 0 0 1 61.41 252.684 Q 61.281 252.258 61.245 251.745 A 5.881 5.881 0 0 1 61.23 251.33 A 5.367 5.367 0 0 1 61.314 250.354 Q 61.484 249.431 62.007 248.84 A 2.519 2.519 0 0 1 63.386 248.047 A 3.818 3.818 0 0 1 64.219 247.961 Q 64.682 247.961 65.145 248.06 A 4.855 4.855 0 0 1 65.414 248.126 Q 65.69 248.202 65.871 248.295 Z M 49.348 249.028 A 1.294 1.294 0 0 0 48.973 249.358 A 1.665 1.665 0 0 0 48.732 249.817 Q 48.569 250.273 48.54 250.966 A 7.494 7.494 0 0 0 48.533 251.283 A 6.431 6.431 0 0 0 48.565 251.948 Q 48.635 252.618 48.859 253.027 A 1.467 1.467 0 0 0 48.984 253.22 A 1.411 1.411 0 0 0 49.7 253.703 Q 50.019 253.803 50.432 253.803 A 1.939 1.939 0 0 0 50.982 253.729 A 1.399 1.399 0 0 0 51.768 253.149 A 2.233 2.233 0 0 0 52.044 252.552 Q 52.207 252.018 52.207 251.271 Q 52.207 250.083 51.812 249.468 A 1.614 1.614 0 0 0 51.768 249.402 A 1.418 1.418 0 0 0 50.865 248.831 A 2.25 2.25 0 0 0 50.408 248.787 Q 49.761 248.787 49.348 249.028 Z M 58.611 251.922 L 58.611 251.342 L 57.639 251.383 A 7.142 7.142 0 0 0 57.068 251.424 Q 56.505 251.49 56.153 251.645 A 1.494 1.494 0 0 0 55.966 251.743 A 1.038 1.038 0 0 0 55.471 252.496 A 1.536 1.536 0 0 0 55.453 252.736 A 1.39 1.39 0 0 0 55.488 253.055 Q 55.558 253.354 55.772 253.539 Q 56.048 253.777 56.514 253.809 A 2.188 2.188 0 0 0 56.666 253.814 Q 57.574 253.814 58.093 253.316 A 1.629 1.629 0 0 0 58.547 252.503 Q 58.61 252.241 58.611 251.932 A 3.098 3.098 0 0 0 58.611 251.922 Z" id="back_labelLayer" stroke="#777777" fill="#777777" style="stroke:#777777;fill:#777777" vector-effect="non-scaling-stroke"/><path d="M 126 220 L 126 242.5 L 123 242.5 L 123 257.5 L 126 257.5 L 126 272.5 L 126 280 L 140.5 280 L 140.5 277 L 155.5 277 L 155.5 280 L 170.5 280 L 170.5 277 L 185.5 277 L 185.5 280 L 200.5 280 L 200.5 277 L 215.5 277 L 215.5 280 L 230.5 280 L 230.5 277 L 245.5 277 L 245.5 280 L 260.5 280 L 260.5 277 L 275.5 277 L 275.5 280 L 290 280 L 290 257.5 L 293 257.5 L 293 242.5 L 290 242.5 L 290 227.5 L 290 220 L 275.5 220 L 275.5 223 L 260.5 223 L 260.5 220 L 245.5 220 L 245.5 223 L 230.5 223 L 230.5 220 L 215.5 220 L 215.5 223 L 200.5 223 L 200.5 220 L 185.5 220 L 185.5 223 L 170.5 223 L 170.5 220 L 155.5 220 L 155.5 223 L 140.5 223 L 140.5 220 L 126 220 Z" id="right_outsideCutPath" stroke="#FF0000" stroke-width="0.1" style="stroke:#FF0000;stroke-width:0.1" vector-effect="non-scaling-stroke"/><path d="M 215.462 253.117 L 214.489 253.117 L 214.489 248.963 A 2.749 2.749 0 0 0 214.458 248.532 Q 214.422 248.305 214.344 248.124 A 1.157 1.157 0 0 0 214.132 247.791 Q 213.842 247.478 213.288 247.418 A 2.579 2.579 0 0 0 213.013 247.404 A 2.943 2.943 0 0 0 212.462 247.452 Q 211.862 247.567 211.533 247.955 A 1.618 1.618 0 0 0 211.259 248.442 Q 211.093 248.888 211.071 249.55 A 6.277 6.277 0 0 0 211.067 249.76 L 211.067 253.117 L 210.095 253.117 L 210.095 244 L 211.067 244 L 211.067 246.76 A 8.75 8.75 0 0 1 211.061 247.096 Q 211.051 247.376 211.021 247.586 L 211.079 247.586 A 1.943 1.943 0 0 1 211.76 246.931 A 2.374 2.374 0 0 1 211.896 246.856 A 2.497 2.497 0 0 1 212.716 246.613 A 3.157 3.157 0 0 1 213.106 246.59 Q 213.881 246.59 214.401 246.832 A 1.753 1.753 0 0 1 214.873 247.149 Q 215.33 247.584 215.433 248.416 A 4.206 4.206 0 0 1 215.462 248.928 L 215.462 253.117 Z M 206.556 246.695 L 208.776 246.695 L 208.776 247.311 L 207.587 247.451 A 1.581 1.581 0 0 1 207.724 247.655 Q 207.784 247.76 207.838 247.886 A 2.999 2.999 0 0 1 207.88 247.987 A 1.871 1.871 0 0 1 207.991 248.434 A 2.403 2.403 0 0 1 208.009 248.734 A 2.23 2.23 0 0 1 207.906 249.426 A 1.803 1.803 0 0 1 207.364 250.24 Q 206.72 250.803 205.595 250.803 Q 205.308 250.803 205.056 250.756 A 1.731 1.731 0 0 0 204.777 250.936 Q 204.435 251.212 204.435 251.582 Q 204.435 251.838 204.638 251.964 A 0.54 0.54 0 0 0 204.651 251.972 Q 204.826 252.073 205.202 252.093 A 3.7 3.7 0 0 0 205.396 252.098 L 206.532 252.098 A 3.981 3.981 0 0 1 207.137 252.141 Q 207.453 252.189 207.708 252.293 A 1.758 1.758 0 0 1 208.135 252.537 A 1.423 1.423 0 0 1 208.664 253.444 A 2.137 2.137 0 0 1 208.694 253.814 A 2.106 2.106 0 0 1 208.574 254.543 Q 208.374 255.091 207.839 255.44 A 2.917 2.917 0 0 1 207.087 255.781 Q 206.716 255.894 206.264 255.949 A 7.709 7.709 0 0 1 205.343 256 A 5.45 5.45 0 0 1 204.612 255.954 Q 203.87 255.853 203.4 255.531 Q 202.762 255.093 202.721 254.316 A 2.054 2.054 0 0 1 202.718 254.207 Q 202.718 253.621 203.093 253.193 A 1.698 1.698 0 0 1 203.676 252.768 A 2.407 2.407 0 0 1 204.147 252.613 Q 203.901 252.502 203.734 252.268 A 0.902 0.902 0 0 1 203.569 251.78 A 1.117 1.117 0 0 1 203.567 251.723 A 1.112 1.112 0 0 1 203.623 251.364 A 0.986 0.986 0 0 1 203.755 251.107 A 1.392 1.392 0 0 1 203.939 250.9 Q 204.037 250.808 204.162 250.719 A 3.055 3.055 0 0 1 204.347 250.598 A 1.705 1.705 0 0 1 203.606 250.005 A 2.113 2.113 0 0 1 203.535 249.9 A 2.011 2.011 0 0 1 203.227 248.931 A 2.454 2.454 0 0 1 203.222 248.775 A 2.81 2.81 0 0 1 203.296 248.111 A 1.849 1.849 0 0 1 203.854 247.149 A 2.066 2.066 0 0 1 204.647 246.712 Q 205.086 246.578 205.647 246.578 A 3.728 3.728 0 0 1 206.141 246.609 A 2.84 2.84 0 0 1 206.556 246.695 Z M 220.413 252.314 L 220.413 253.059 A 0.957 0.957 0 0 1 220.3 253.104 Q 220.179 253.144 220.005 253.175 A 3.638 3.638 0 0 1 219.947 253.185 A 4.216 4.216 0 0 1 219.672 253.22 Q 219.543 253.233 219.427 253.234 A 2.494 2.494 0 0 1 219.394 253.234 A 2.54 2.54 0 0 1 218.645 253.134 Q 217.822 252.88 217.607 251.986 A 3.057 3.057 0 0 1 217.53 251.271 L 217.53 247.451 L 216.61 247.451 L 216.61 246.982 L 217.53 246.578 L 217.94 245.207 L 218.503 245.207 L 218.503 246.695 L 220.366 246.695 L 220.366 247.451 L 218.503 247.451 L 218.503 251.23 A 1.959 1.959 0 0 0 218.531 251.574 Q 218.565 251.763 218.639 251.913 A 0.943 0.943 0 0 0 218.778 252.121 A 0.904 0.904 0 0 0 219.334 252.417 A 1.3 1.3 0 0 0 219.534 252.432 A 3.194 3.194 0 0 0 220.002 252.398 A 2.943 2.943 0 0 0 220.032 252.394 Q 220.272 252.355 220.413 252.314 Z M 199.284 246.648 L 199.149 247.551 A 4.287 4.287 0 0 0 198.841 247.494 Q 198.627 247.463 198.446 247.463 A 1.685 1.685 0 0 0 197.201 248.001 A 2.306 2.306 0 0 0 197.113 248.096 A 2.221 2.221 0 0 0 196.577 249.343 A 2.952 2.952 0 0 0 196.56 249.672 L 196.56 253.117 L 195.587 253.117 L 195.587 246.695 L 196.39 246.695 L 196.501 247.885 L 196.548 247.885 A 3.285 3.285 0 0 1 196.915 247.36 A 2.509 2.509 0 0 1 197.409 246.918 A 1.939 1.939 0 0 1 198.517 246.578 A 4.465 4.465 0 0 1 198.916 246.595 A 3.259 3.259 0 0 1 199.284 246.648 Z M 201.458 246.695 L 201.458 253.117 L 200.485 253.117 L 200.485 246.695 L 201.458 246.695 Z M 206.222 252.971 L 205.056 252.971 Q 204.571 252.971 204.243 253.14 A 1.139 1.139 0 0 0 204.024 253.287 A 1.025 1.025 0 0 0 203.688 253.868 A 1.556 1.556 0 0 0 203.655 254.195 A 0.977 0.977 0 0 0 203.72 254.558 Q 203.812 254.791 204.037 254.949 A 1.141 1.141 0 0 0 204.095 254.986 Q 204.532 255.255 205.346 255.256 A 4.996 4.996 0 0 0 205.354 255.256 Q 206.448 255.256 207.035 254.964 A 1.615 1.615 0 0 0 207.168 254.89 A 1.419 1.419 0 0 0 207.497 254.614 A 1.063 1.063 0 0 0 207.757 253.896 Q 207.757 253.375 207.435 253.173 Q 207.189 253.019 206.614 252.982 A 6.189 6.189 0 0 0 206.222 252.971 Z M 204.399 249.582 A 1.041 1.041 0 0 0 204.563 249.771 Q 204.907 250.083 205.492 250.114 A 2.504 2.504 0 0 0 205.624 250.117 Q 206.748 250.117 206.985 249.255 A 1.97 1.97 0 0 0 207.048 248.734 A 2.091 2.091 0 0 0 206.976 248.162 Q 206.793 247.519 206.14 247.349 A 2.115 2.115 0 0 0 205.606 247.287 A 2.041 2.041 0 0 0 205.191 247.327 Q 204.936 247.38 204.741 247.504 A 1.12 1.12 0 0 0 204.552 247.656 A 1.167 1.167 0 0 0 204.269 248.132 Q 204.21 248.316 204.191 248.54 A 2.559 2.559 0 0 0 204.183 248.752 Q 204.183 249.26 204.399 249.582 Z M 200.567 244.466 A 0.455 0.455 0 0 0 200.467 244.609 Q 200.403 244.747 200.403 244.955 A 1.148 1.148 0 0 0 200.408 245.065 Q 200.418 245.163 200.445 245.243 A 0.502 0.502 0 0 0 200.567 245.444 A 0.546 0.546 0 0 0 200.765 245.57 A 0.618 0.618 0 0 0 200.978 245.605 A 0.567 0.567 0 0 0 201.382 245.444 A 0.475 0.475 0 0 0 201.475 245.322 Q 201.552 245.176 201.552 244.955 A 1.113 1.113 0 0 0 201.547 244.85 Q 201.538 244.754 201.511 244.675 A 0.491 0.491 0 0 0 201.382 244.469 A 0.573 0.573 0 0 0 200.978 244.311 Q 200.731 244.311 200.567 244.466 Z" id="right_labelLayer" stroke="#777777" fill="#777777" style="stroke:#777777;fill:#777777" vector-effect="non-scaling-stroke"/><path d="M 299 3 L 299 17.5 L 296 17.5 L 296 32.5 L 299 32.5 L 299 47.5 L 296 47.5 L 296 62.5 L 299 62.5 L 299 77.5 L 296 77.5 L 296 92.5 L 299 92.5 L 299 107.5 L 296 107.5 L 296 122.5 L 299 122.5 L 299 137.5 L 296 137.5 L 296 152.5 L 299 152.5 L 299 167 L 318.5 167 L 318.5 170 L 333.5 170 L 333.5 167 L 348.5 167 L 348.5 170 L 363.5 170 L 363.5 167 L 378.5 167 L 378.5 170 L 393.5 170 L 393.5 167 L 408.5 167 L 413 167 L 413 152.5 L 416 152.5 L 416 137.5 L 413 137.5 L 413 122.5 L 416 122.5 L 416 107.5 L 413 107.5 L 413 92.5 L 416 92.5 L 416 77.5 L 413 77.5 L 413 62.5 L 416 62.5 L 416 47.5 L 413 47.5 L 413 32.5 L 416 32.5 L 416 17.5 L 413 17.5 L 413 3 L 393.5 3 L 393.5 0 L 378.5 0 L 378.5 3 L 363.5 3 L 363.5 0 L 348.5 0 L 348.5 3 L 333.5 3 L 333.5 0 L 318.5 0 L 318.5 3 L 303.5 3 L 299 3 Z" id="bottom_outsideCutPath" stroke="#FF0000" stroke-width="0.1" style="stroke:#FF0000;stroke-width:0.1" vector-effect="non-scaling-stroke"/><path d="M 395.48 94 L 393.535 94 L 393.535 85.644 Q 393.535 84.109 392.879 83.341 A 2.047 2.047 0 0 0 391.927 82.726 Q 391.588 82.617 391.175 82.586 A 4.516 4.516 0 0 0 390.84 82.574 Q 389.566 82.574 388.759 83.087 A 2.576 2.576 0 0 0 388.156 83.617 Q 387.293 84.655 387.289 86.808 A 10.827 10.827 0 0 0 387.289 86.828 L 387.289 94 L 385.344 94 L 385.344 85.644 Q 385.344 84.109 384.687 83.341 A 2.041 2.041 0 0 0 383.749 82.732 Q 383.269 82.574 382.637 82.574 A 4.832 4.832 0 0 0 381.637 82.67 Q 380.556 82.899 379.959 83.67 A 3.262 3.262 0 0 0 379.475 84.588 Q 379.162 85.476 379.117 86.806 A 13.544 13.544 0 0 0 379.109 87.261 L 379.109 94 L 377.164 94 L 377.164 81.156 L 378.746 81.156 L 379.062 82.914 L 379.156 82.914 Q 379.707 81.976 380.709 81.449 A 4.618 4.618 0 0 1 382.533 80.937 A 5.578 5.578 0 0 1 382.953 80.922 A 6.369 6.369 0 0 1 384.387 81.071 Q 385.268 81.275 385.883 81.758 A 3.321 3.321 0 0 1 386.891 83.101 L 386.984 83.101 A 4.062 4.062 0 0 1 388.514 81.582 A 4.88 4.88 0 0 1 388.648 81.508 A 4.924 4.924 0 0 1 390.455 80.958 A 6.139 6.139 0 0 1 391.133 80.922 A 6.762 6.762 0 0 1 392.359 81.025 Q 393.041 81.151 393.573 81.43 A 3.206 3.206 0 0 1 394.396 82.041 Q 395.48 83.16 395.48 85.621 L 395.48 94 Z M 318.465 92.347 L 318.324 92.347 L 317.914 94 L 316.519 94 L 316.519 75.765 L 318.465 75.765 L 318.465 80.195 A 40.558 40.558 0 0 1 318.443 81.565 Q 318.421 82.213 318.377 82.79 A 24.315 24.315 0 0 1 318.371 82.867 L 318.465 82.867 A 4.423 4.423 0 0 1 321.693 80.992 A 6.644 6.644 0 0 1 322.496 80.945 A 5.946 5.946 0 0 1 324.169 81.168 A 4.451 4.451 0 0 1 326.428 82.674 Q 327.549 84.058 327.772 86.362 A 12.486 12.486 0 0 1 327.828 87.566 A 11.406 11.406 0 0 1 327.677 89.485 Q 327.366 91.303 326.416 92.482 A 4.605 4.605 0 0 1 323.143 94.203 A 6.598 6.598 0 0 1 322.496 94.234 A 5.901 5.901 0 0 1 321.013 94.053 A 5.134 5.134 0 0 1 320.205 93.771 A 4.309 4.309 0 0 1 318.465 92.347 Z M 351.629 92.394 L 351.629 93.883 Q 351.343 94.02 350.813 94.115 A 7.276 7.276 0 0 1 350.697 94.134 Q 350.123 94.227 349.656 94.234 A 4.987 4.987 0 0 1 349.59 94.234 A 5.081 5.081 0 0 1 348.092 94.033 Q 346.447 93.525 346.016 91.737 A 6.115 6.115 0 0 1 345.863 90.308 L 345.863 82.668 L 344.023 82.668 L 344.023 81.73 L 345.863 80.922 L 346.684 78.179 L 347.809 78.179 L 347.809 81.156 L 351.535 81.156 L 351.535 82.668 L 347.809 82.668 L 347.809 90.226 Q 347.809 91.041 348.08 91.59 A 1.887 1.887 0 0 0 348.359 92.008 A 1.807 1.807 0 0 0 349.47 92.599 A 2.6 2.6 0 0 0 349.871 92.629 A 6.389 6.389 0 0 0 350.807 92.562 A 5.888 5.888 0 0 0 350.867 92.552 Q 351.326 92.48 351.603 92.402 A 2.926 2.926 0 0 0 351.629 92.394 Z M 360.102 92.394 L 360.102 93.883 Q 359.816 94.02 359.286 94.115 A 7.276 7.276 0 0 1 359.17 94.134 Q 358.595 94.227 358.128 94.234 A 4.987 4.987 0 0 1 358.062 94.234 A 5.081 5.081 0 0 1 356.565 94.033 Q 354.919 93.525 354.489 91.737 A 6.115 6.115 0 0 1 354.336 90.308 L 354.336 82.668 L 352.496 82.668 L 352.496 81.73 L 354.336 80.922 L 355.156 78.179 L 356.281 78.179 L 356.281 81.156 L 360.008 81.156 L 360.008 82.668 L 356.281 82.668 L 356.281 90.226 Q 356.281 91.041 356.553 91.59 A 1.887 1.887 0 0 0 356.832 92.008 A 1.807 1.807 0 0 0 357.943 92.599 A 2.6 2.6 0 0 0 358.344 92.629 A 6.389 6.389 0 0 0 359.28 92.562 A 5.888 5.888 0 0 0 359.34 92.552 Q 359.798 92.48 360.075 92.402 A 2.926 2.926 0 0 0 360.102 92.394 Z M 340.73 92.47 A 5.427 5.427 0 0 0 341.377 91.583 Q 342.312 89.982 342.312 87.566 Q 342.312 84.508 340.725 82.715 Q 339.137 80.922 336.441 80.922 A 7.555 7.555 0 0 0 335.084 81.038 A 5.145 5.145 0 0 0 332.082 82.674 Q 331.039 83.837 330.689 85.613 A 10.101 10.101 0 0 0 330.512 87.566 A 9.732 9.732 0 0 0 330.634 89.142 A 7.196 7.196 0 0 0 331.238 91.105 A 6.394 6.394 0 0 0 331.38 91.382 A 5.266 5.266 0 0 0 333.301 93.425 A 5.417 5.417 0 0 0 334.544 93.978 A 6.247 6.247 0 0 0 336.359 94.234 A 7.554 7.554 0 0 0 337.678 94.124 A 5.186 5.186 0 0 0 340.73 92.47 Z M 372.172 92.47 A 5.427 5.427 0 0 0 372.818 91.583 Q 373.754 89.982 373.754 87.566 Q 373.754 84.508 372.166 82.715 Q 370.578 80.922 367.883 80.922 A 7.555 7.555 0 0 0 366.526 81.038 A 5.145 5.145 0 0 0 363.523 82.674 Q 362.481 83.837 362.13 85.613 A 10.101 10.101 0 0 0 361.953 87.566 A 9.732 9.732 0 0 0 362.075 89.142 A 7.196 7.196 0 0 0 362.68 91.105 A 6.394 6.394 0 0 0 362.821 91.382 A 5.266 5.266 0 0 0 364.742 93.425 A 5.417 5.417 0 0 0 365.985 93.978 A 6.247 6.247 0 0 0 367.801 94.234 A 7.554 7.554 0 0 0 369.12 94.124 A 5.186 5.186 0 0 0 372.172 92.47 Z M 332.527 87.566 A 9.851 9.851 0 0 0 332.621 88.973 Q 332.724 89.688 332.942 90.266 A 4.081 4.081 0 0 0 333.512 91.316 A 3.188 3.188 0 0 0 335.588 92.539 A 4.831 4.831 0 0 0 336.406 92.605 A 4.518 4.518 0 0 0 337.598 92.457 A 3.145 3.145 0 0 0 339.307 91.322 Q 340.043 90.368 340.232 88.756 A 10.247 10.247 0 0 0 340.297 87.566 A 9.706 9.706 0 0 0 340.205 86.183 Q 340.103 85.479 339.889 84.908 A 4.005 4.005 0 0 0 339.307 83.845 A 3.2 3.2 0 0 0 337.317 82.658 A 4.906 4.906 0 0 0 336.383 82.574 A 4.63 4.63 0 0 0 335.23 82.709 A 3.098 3.098 0 0 0 333.5 83.828 Q 332.8 84.73 332.604 86.271 A 10.28 10.28 0 0 0 332.527 87.566 Z M 363.969 87.566 A 9.851 9.851 0 0 0 364.062 88.973 Q 364.166 89.688 364.383 90.266 A 4.081 4.081 0 0 0 364.953 91.316 A 3.188 3.188 0 0 0 367.03 92.539 A 4.831 4.831 0 0 0 367.848 92.605 A 4.518 4.518 0 0 0 369.04 92.457 A 3.145 3.145 0 0 0 370.748 91.322 Q 371.484 90.368 371.673 88.756 A 10.247 10.247 0 0 0 371.738 87.566 A 9.706 9.706 0 0 0 371.646 86.183 Q 371.545 85.479 371.331 84.908 A 4.005 4.005 0 0 0 370.748 83.845 A 3.2 3.2 0 0 0 368.758 82.658 A 4.906 4.906 0 0 0 367.824 82.574 A 4.63 4.63 0 0 0 366.672 82.709 A 3.098 3.098 0 0 0 364.941 83.828 Q 364.241 84.73 364.045 86.271 A 10.28 10.28 0 0 0 363.969 87.566 Z M 320.095 83.057 A 2.587 2.587 0 0 0 319.344 83.716 Q 318.465 84.859 318.465 87.566 A 12.862 12.862 0 0 0 318.528 88.895 Q 318.668 90.237 319.116 91.053 A 2.934 2.934 0 0 0 319.367 91.439 A 2.822 2.822 0 0 0 320.799 92.405 Q 321.437 92.605 322.262 92.605 A 3.878 3.878 0 0 0 323.363 92.458 A 2.798 2.798 0 0 0 324.934 91.299 A 4.466 4.466 0 0 0 325.486 90.103 Q 325.659 89.536 325.741 88.849 A 11.147 11.147 0 0 0 325.812 87.543 A 11.493 11.493 0 0 0 325.743 86.233 Q 325.565 84.689 324.934 83.804 A 2.837 2.837 0 0 0 323.127 82.661 A 4.499 4.499 0 0 0 322.215 82.574 Q 320.92 82.574 320.095 83.057 Z" id="bottom_labelLayer" stroke="#777777" fill="#777777" style="stroke:#777777;fill:#777777" vector-effect="non-scaling-stroke"/></g></svg>